<svg xmlns="http://www.w3.org/2000/svg" width="20" height="20" viewBox="0 0 20 20" fill="none">
<path d="M11.5624 15.6876C11.0472 15.785 10.5241 15.8338 9.99986 15.8334C6.2682 15.8334 3.10986 13.3809 2.04736 10.0001C2.33342 9.09014 2.77402 8.23628 3.34986 7.47589M8.23153 8.23256C8.70041 7.76368 9.33635 7.50027 9.99945 7.50027C10.6625 7.50027 11.2985 7.76368 11.7674 8.23256C12.2362 8.70144 12.4997 9.33738 12.4997 10.0005C12.4997 10.6636 12.2362 11.2995 11.7674 11.7684M8.23153 8.23256L11.7674 11.7684M8.23153 8.23256L11.7665 11.7667M11.7674 11.7684L14.5099 14.5101M8.2332 8.23339L5.49153 5.49173M5.49153 5.49173L2.49986 2.50006M5.49153 5.49173C6.83516 4.6247 8.40078 4.16456 9.99986 4.16673C13.7315 4.16673 16.8899 6.61923 17.9524 10.0001C17.3657 11.8588 16.1477 13.4539 14.509 14.5092M5.49153 5.49173L14.509 14.5092M14.509 14.5092L17.4999 17.5001" stroke="black" stroke-width="2" stroke-linecap="round" stroke-linejoin="round"/>
</svg>
