<svg xmlns="http://www.w3.org/2000/svg" width="24" height="24" viewBox="0 0 24 24" fill="none">
<path d="M3.24974 15.2973C1.62408 13.3744 1.62408 10.6256 3.24974 8.70266C5.11329 6.4983 8.08822 4 12 4C15.9118 4 18.8867 6.4983 20.7503 8.70266C22.3759 10.6256 22.3759 13.3744 20.7503 15.2973C18.8867 17.5017 15.9118 20 12 20C8.08822 20 5.11329 17.5017 3.24974 15.2973Z" stroke="#292D32" stroke-width="1.5" stroke-linecap="round" stroke-linejoin="round"/>
<path d="M12 15C13.6569 15 15 13.6569 15 12C15 10.3431 13.6569 9 12 9C10.3431 9 9 10.3431 9 12C9 13.6569 10.3431 15 12 15Z" stroke="#292D32" stroke-width="1.5" stroke-linecap="round" stroke-linejoin="round"/>
</svg>
